La piel que habito - TS-Screener HQ

Sinopsis:
Desde que su mujer sufriera quemaduras en todo el cuerpo en un accidente de coche, el Doctor Robert Ledgard, eminente cirujano plástico, se interesa por la creación de una nueva piel con la que hubiera podido salvarla. Doce años después consigue cultivarla en su propio laboratorio, una piel sensible a las caricias, pero una auténtica coraza contra todas las agresiones, tanto externas como internas, de las que es víctima nuestro mayor órgano. Para lograrlo ha utilizado las posibilidades que proporciona la terapia celular. Además de años de estudio y experimentación, Robert necesitaba una cobaya humana, un cómplice y ningún escrúpulo. Los escrúpulos nunca fueron un problema, no formaban parte de su carácter. Marilia, la mujer que se ocupó de él desde el día que nació, es su cómplice más fiel, nunca le fallará. Y respecto a la cobaya humana... Al cabo del año desaparecen de sus casas decenas de jóvenes de ambos sexos, en muchos casos por voluntad propia. Uno de estos jóvenes acaba compartiendo con Robert y Marilia la espléndida mansión, El Cigarral. Y lo hace contra su voluntad...

Info:
Titulo Original:  La piel que habito
Idioma: Español
País: USA
Año: 2011
Subtitulos: no
Género: Terror
Tamaño: 1.41 gb
Calidad Imagen: TS-Screener HQ
Formato: .avi

Video
ID                               : 0
Format                           : MPEG-4 Visual
Format profile                   : Advanced Simple@L5
Format settings, BVOP            : 1
Format settings, QPel            : No
Format settings, GMC             : No warppoints
Format settings, Matrix          : Default (MPEG)
Codec ID                         : XVID
Codec ID/Hint                    : XviD
Duration                         : 1h 52mn
Bit rate                         : 1 644 Kbps
Width                            : 720 pixels
Height                           : 360 pixels
Display aspect ratio             : 2.000
Frame rate                       : 25.000 fps
Color space                      : YUV
Chroma subsampling               : 4:2:0
Bit depth                        : 8 bits
Scan type                        : Progressive
Compression mode                 : Lossy
Bits/(Pixel*Frame)               : 0.254
Stream size                      : 1.30 GiB (92%)
Writing library                  : XviD 1.2.1 (UTC 2008-12-04)

Audio
ID                               : 1
Format                           : MPEG Audio
Codec ID                         : 55
Codec ID/Hint                    : MP3
Duration                         : 1h 52mn
Bit rate                         : 128 Kbps
Channel(s)                       : 2 channels
Sampling rate                    : 48.0 KHz
Compression mode                 : Lossy
Stream size                      : 103 MiB (7%)
Alignment                        : Split accross interleaves
Interleave, duration             : 40 ms (1.00 video frame)
Interleave, preload duration     : 504 ms
